<?xml version="1.0" encoding="UTF-8" standalone="no"?>
<!DOCTYPE svg PUBLIC "-//W3C//DTD SVG 1.1//EN"
 "http://www.w3.org/Graphics/SVG/1.1/DTD/svg11.dtd">
<!-- Generated by graphviz version 15.0.0 (20260523.1842)
 -->
<!-- Title: amc_system_overview Pages: 1 -->
<svg width="3327pt" height="5322pt"
 viewBox="0.00 0.00 3327.00 5322.00" xmlns="http://www.w3.org/2000/svg" xmlns:xlink="http://www.w3.org/1999/xlink">
<g id="graph0" class="graph" transform="scale(4.16667 4.16667) rotate(0) translate(4 1273.28)">
<title>amc_system_overview</title>
<polygon fill="white" stroke="none" points="-4,4 -4,-1273.28 794.56,-1273.28 794.56,4 -4,4"/>
<text xml:space="preserve" text-anchor="start" x="145.9" y="-1249.18" font-family="Arial" font-weight="bold" font-size="18.00">Toàn cảnh hệ thống AMC (Adaptive Modulation &amp; Coding)</text>
<text xml:space="preserve" text-anchor="start" x="120.4" y="-1237.83" font-family="Arial" font-size="11.00" fill="#666666">Khung viền XANH ĐẬM = đang xây trong project HIỆN TẠI (baseline PHY) · viền XÁM ĐỨT = giai đoạn AMC sau</text>
<text xml:space="preserve" text-anchor="start" x="392.65" y="-1220.18" font-family="Arial" font-size="18.00"> </text>
<g id="clust2" class="cluster">
<title>cluster_offline_sinh_nh_n_hu_n_luy_n</title>
<path fill="white" stroke="#7a5cc0" stroke-dasharray="5,2" d="M282.47,-350.33C282.47,-350.33 526.47,-350.33 526.47,-350.33 532.47,-350.33 538.47,-356.33 538.47,-362.33 538.47,-362.33 538.47,-810.2 538.47,-810.2 538.47,-816.2 532.47,-822.2 526.47,-822.2 526.47,-822.2 282.47,-822.2 282.47,-822.2 276.47,-822.2 270.47,-816.2 270.47,-810.2 270.47,-810.2 270.47,-362.33 270.47,-362.33 270.47,-356.33 276.47,-350.33 282.47,-350.33"/>
<text xml:space="preserve" text-anchor="middle" x="404.47" y="-806.8" font-family="Arial" font-size="12.00" fill="#7a5cc0">OFFLINE — sinh nhãn &amp; huấn luyện</text>
</g>
<g id="clust3" class="cluster">
<title>cluster_online_v_ng_quy_t_nh_runtime</title>
<path fill="white" stroke="#d08a2c" stroke-dasharray="5,2" d="M267.47,-166.54C267.47,-166.54 541.47,-166.54 541.47,-166.54 547.47,-166.54 553.47,-172.54 553.47,-178.54 553.47,-178.54 553.47,-297.33 553.47,-297.33 553.47,-303.33 547.47,-309.33 541.47,-309.33 541.47,-309.33 267.47,-309.33 267.47,-309.33 261.47,-309.33 255.47,-303.33 255.47,-297.33 255.47,-297.33 255.47,-178.54 255.47,-178.54 255.47,-172.54 261.47,-166.54 267.47,-166.54"/>
<text xml:space="preserve" text-anchor="middle" x="404.47" y="-293.93" font-family="Arial" font-size="12.00" fill="#d08a2c">ONLINE — vòng quyết định runtime</text>
</g>
<!-- state -->
<g id="node1" class="node">
<title>state</title>
<path fill="#eef5ff" stroke="black" d="M254.93,-1214.28C254.93,-1214.28 12,-1214.28 12,-1214.28 6,-1214.28 0,-1208.28 0,-1202.28 0,-1202.28 0,-1101.74 0,-1101.74 0,-1095.74 6,-1089.74 12,-1089.74 12,-1089.74 254.93,-1089.74 254.93,-1089.74 260.93,-1089.74 266.93,-1095.74 266.93,-1101.74 266.93,-1101.74 266.93,-1202.28 266.93,-1202.28 266.93,-1208.28 260.93,-1214.28 254.93,-1214.28"/>
<text xml:space="preserve" text-anchor="start" x="46.09" y="-1189.31" font-family="Arial" font-weight="bold" font-size="11.00">STATE &#160;s &#160;(trạng thái kênh + QoS)</text>
<text xml:space="preserve" text-anchor="start" x="19.84" y="-1167.51" font-family="Arial" font-size="10.00">• SNR profile đa subcarrier: mean/var/min/percentile</text>
<text xml:space="preserve" text-anchor="start" x="19.84" y="-1147.51" font-family="Arial" font-size="10.00">• Doppler / coherence time</text>
<text xml:space="preserve" text-anchor="start" x="19.84" y="-1127.51" font-family="Arial" font-size="10.00">• độ tin cậy CSI (var của SNR ước lượng)</text>
<text xml:space="preserve" text-anchor="start" x="19.84" y="-1107.51" font-family="Arial" font-size="10.00">• QoS: target BLER (~10%), latency budget</text>
</g>
<!-- oracle -->
<g id="node5" class="node">
<title>oracle</title>
<path fill="#e7e0ff" stroke="#888888" stroke-dasharray="5,2" d="M518.43,-791.95C518.43,-791.95 290.5,-791.95 290.5,-791.95 284.5,-791.95 278.5,-785.95 278.5,-779.95 278.5,-779.95 278.5,-679.41 278.5,-679.41 278.5,-673.41 284.5,-667.41 290.5,-667.41 290.5,-667.41 518.43,-667.41 518.43,-667.41 524.43,-667.41 530.43,-673.41 530.43,-679.41 530.43,-679.41 530.43,-779.95 530.43,-779.95 530.43,-785.95 524.43,-791.95 518.43,-791.95"/>
<text xml:space="preserve" text-anchor="start" x="335.09" y="-766.98" font-family="Arial" font-weight="bold" font-size="11.00">ORACLE / GENIE (vét cạn)</text>
<text xml:space="preserve" text-anchor="start" x="298.34" y="-745.18" font-family="Arial" font-size="10.00">Với mỗi state s: thử MỌI action a qua simulator,</text>
<text xml:space="preserve" text-anchor="start" x="298.34" y="-725.18" font-family="Arial" font-size="10.00">đo BLER tin cậy (Monte Carlo ≥ N lỗi),</text>
<text xml:space="preserve" text-anchor="start" x="298.34" y="-705.18" font-family="Arial" font-size="10.00">chọn a*(s) = argmax objective</text>
<text xml:space="preserve" text-anchor="start" x="298.34" y="-685.18" font-family="Arial" font-size="10.00">→ đây là LUT tối ưu / upper bound</text>
</g>
<!-- state&#45;&gt;oracle -->
<g id="edge4" class="edge">
<title>state&#45;&gt;oracle</title>
<path fill="none" stroke="#7a5cc0" stroke-dasharray="5,2" d="M173.16,-1089.44C222.47,-1012.97 306.42,-882.75 358.48,-802.01"/>
<polygon fill="#7a5cc0" stroke="#7a5cc0" points="361.37,-803.99 363.84,-793.69 355.48,-800.19 361.37,-803.99"/>
<text xml:space="preserve" text-anchor="middle" x="322.9" y="-953.97" font-family="Arial" font-size="10.00" fill="#1a4f8a">duyệt theo s</text>
</g>
<!-- ctrl -->
<g id="node8" class="node">
<title>ctrl</title>
<path fill="#ffe3c2" stroke="#888888" stroke-dasharray="5,2" d="M533.81,-279.08C533.81,-279.08 275.12,-279.08 275.12,-279.08 269.12,-279.08 263.12,-273.08 263.12,-267.08 263.12,-267.08 263.12,-186.54 263.12,-186.54 263.12,-180.54 269.12,-174.54 275.12,-174.54 275.12,-174.54 533.81,-174.54 533.81,-174.54 539.81,-174.54 545.81,-180.54 545.81,-186.54 545.81,-186.54 545.81,-267.08 545.81,-267.08 545.81,-273.08 539.81,-279.08 533.81,-279.08"/>
<text xml:space="preserve" text-anchor="start" x="318.22" y="-254.11" font-family="Arial" font-weight="bold" font-size="11.00">BỘ QUYẾT ĐỊNH + HYSTERESIS</text>
<text xml:space="preserve" text-anchor="start" x="282.97" y="-232.31" font-family="Arial" font-size="10.00">s_t → π(s_t) → a_candidate</text>
<text xml:space="preserve" text-anchor="start" x="282.97" y="-212.31" font-family="Arial" font-size="10.00">Hysteresis: chỉ đổi mode khi vượt ngưỡng &amp; giữ đủ lâu</text>
<text xml:space="preserve" text-anchor="start" x="282.97" y="-192.31" font-family="Arial" font-size="10.00">→ a_final (mode phát)</text>
</g>
<!-- state&#45;&gt;ctrl -->
<g id="edge8" class="edge">
<title>state&#45;&gt;ctrl</title>
<path fill="none" stroke="#d08a2c" stroke-dasharray="5,2" d="M142.15,-1089.58C146.75,-1051.84 151.47,-1002.45 151.47,-958.47 151.47,-958.47 151.47,-958.47 151.47,-409.6 151.47,-349.64 198.9,-307.53 252.69,-279.04"/>
<polygon fill="#d08a2c" stroke="#d08a2c" points="254.14,-282.23 261.45,-274.57 250.96,-276 254.14,-282.23"/>
<text xml:space="preserve" text-anchor="middle" x="179.22" y="-628.91" font-family="Arial" font-size="10.00" fill="#1a4f8a">s_t đo online</text>
</g>
<!-- action -->
<g id="node2" class="node">
<title>action</title>
<path fill="#eef5ff" stroke="black" d="M748.18,-1214.28C748.18,-1214.28 554.75,-1214.28 554.75,-1214.28 548.75,-1214.28 542.75,-1208.28 542.75,-1202.28 542.75,-1202.28 542.75,-1101.74 542.75,-1101.74 542.75,-1095.74 548.75,-1089.74 554.75,-1089.74 554.75,-1089.74 748.18,-1089.74 748.18,-1089.74 754.18,-1089.74 760.18,-1095.74 760.18,-1101.74 760.18,-1101.74 760.18,-1202.28 760.18,-1202.28 760.18,-1208.28 754.18,-1214.28 748.18,-1214.28"/>
<text xml:space="preserve" text-anchor="start" x="562.59" y="-1189.31" font-family="Arial" font-weight="bold" font-size="11.00">ACTION &#160;a &#160;(chế độ truyền = MCS)</text>
<text xml:space="preserve" text-anchor="start" x="562.59" y="-1167.51" font-family="Arial" font-size="10.00">modulation {BPSK, QPSK, 16QAM}</text>
<text xml:space="preserve" text-anchor="start" x="562.59" y="-1147.51" font-family="Arial" font-size="10.00">× code rate {1/2, 2/3, 3/4}</text>
<text xml:space="preserve" text-anchor="start" x="562.59" y="-1127.51" font-family="Arial" font-size="10.00">× #iter decoder {5, 10, 20}</text>
<text xml:space="preserve" text-anchor="start" x="562.59" y="-1107.51" font-family="Arial" font-size="10.00">→ bảng MCS thu gọn (~9 mode)</text>
</g>
<!-- phy -->
<g id="node4" class="node">
<title>phy</title>
<path fill="#d8f5d0" stroke="#1a7d1a" stroke-width="3" d="M778.56,-1019.74C778.56,-1019.74 512.38,-1019.74 512.38,-1019.74 506.38,-1019.74 500.38,-1013.74 500.38,-1007.74 500.38,-1007.74 500.38,-907.2 500.38,-907.2 500.38,-901.2 506.38,-895.2 512.38,-895.2 512.38,-895.2 778.56,-895.2 778.56,-895.2 784.56,-895.2 790.56,-901.2 790.56,-907.2 790.56,-907.2 790.56,-1007.74 790.56,-1007.74 790.56,-1013.74 784.56,-1019.74 778.56,-1019.74"/>
<text xml:space="preserve" text-anchor="start" x="520.22" y="-994.77" font-family="Arial" font-weight="bold" font-size="11.00">PHY LINK SIMULATOR &#160;(môi trường mô phỏng)</text>
<text xml:space="preserve" text-anchor="start" x="520.22" y="-972.97" font-family="Arial" font-size="10.00">Vào: (channel realization, action a)</text>
<text xml:space="preserve" text-anchor="start" x="520.22" y="-952.97" font-family="Arial" font-size="10.00">Ra : BER, BLER, throughput, runtime</text>
<text xml:space="preserve" text-anchor="start" x="520.22" y="-934.22" font-family="Arial" font-style="italic" font-size="10.00">Project hiện tại: bản single&#45;carrier, perfect CSI,</text>
<text xml:space="preserve" text-anchor="start" x="520.22" y="-914.22" font-family="Arial" font-style="italic" font-size="10.00">chưa LDPC/OFDM — sẽ nâng cấp ở giai đoạn sau</text>
</g>
<!-- action&#45;&gt;phy -->
<g id="edge1" class="edge">
<title>action&#45;&gt;phy</title>
<path fill="none" stroke="#333333" d="M649.54,-1089.29C648.98,-1071.26 648.36,-1051.36 647.78,-1032.64"/>
<polygon fill="#333333" stroke="#333333" points="651.28,-1032.56 647.47,-1022.67 644.28,-1032.77 651.28,-1032.56"/>
<text xml:space="preserve" text-anchor="middle" x="651.27" y="-1051.24" font-family="Arial" font-size="10.00" fill="#1a4f8a">a</text>
</g>
<!-- obj -->
<g id="node3" class="node">
<title>obj</title>
<path fill="#eef5ff" stroke="black" d="M490.31,-1214.28C490.31,-1214.28 318.62,-1214.28 318.62,-1214.28 312.62,-1214.28 306.62,-1208.28 306.62,-1202.28 306.62,-1202.28 306.62,-1101.74 306.62,-1101.74 306.62,-1095.74 312.62,-1089.74 318.62,-1089.74 318.62,-1089.74 490.31,-1089.74 490.31,-1089.74 496.31,-1089.74 502.31,-1095.74 502.31,-1101.74 502.31,-1101.74 502.31,-1202.28 502.31,-1202.28 502.31,-1208.28 496.31,-1214.28 490.31,-1214.28"/>
<text xml:space="preserve" text-anchor="start" x="330.97" y="-1189.31" font-family="Arial" font-weight="bold" font-size="11.00">OBJECTIVE &#160;(hàm mục tiêu)</text>
<text xml:space="preserve" text-anchor="start" x="326.47" y="-1167.51" font-family="Arial" font-size="10.00">max throughput hiệu dụng:</text>
<text xml:space="preserve" text-anchor="start" x="326.47" y="-1148.76" font-family="Arial" font-size="10.00">η = R_code × log</text>
<text xml:space="preserve" text-anchor="start" x="402.22" y="-1148.76" font-family="Arial" baseline-shift="sub" font-size="10.00">2</text>
<text xml:space="preserve" text-anchor="start" x="406.72" y="-1148.76" font-family="Arial" font-size="10.00">(M) × (1 − BLER)</text>
<text xml:space="preserve" text-anchor="start" x="326.47" y="-1127.51" font-family="Arial" font-size="10.00">ràng buộc: BLER ≤ target</text>
<text xml:space="preserve" text-anchor="start" x="326.47" y="-1107.51" font-family="Arial" font-size="10.00"> &#160;&#160;&#160;&#160;&#160;&#160;&#160;&#160;&#160;&#160;&#160;&#160;runtime ≤ budget</text>
</g>
<!-- obj&#45;&gt;oracle -->
<g id="edge3" class="edge">
<title>obj&#45;&gt;oracle</title>
<path fill="none" stroke="#7a5cc0" stroke-dasharray="5,2" d="M404.47,-1089.44C404.47,-1013.43 404.47,-884.34 404.47,-803.49"/>
<polygon fill="#7a5cc0" stroke="#7a5cc0" points="407.97,-803.93 404.47,-793.93 400.97,-803.93 407.97,-803.93"/>
<text xml:space="preserve" text-anchor="middle" x="432.59" y="-953.97" font-family="Arial" font-size="10.00" fill="#1a4f8a">tiêu chí chọn</text>
</g>
<!-- phy&#45;&gt;oracle -->
<g id="edge2" class="edge">
<title>phy&#45;&gt;oracle</title>
<path fill="none" stroke="#333333" d="M571.73,-893.71C561.38,-884.59 550.96,-875.23 541.22,-866.2 518.6,-845.25 494.54,-821.81 473,-800.39"/>
<polygon fill="#333333" stroke="#333333" points="475.5,-797.94 465.95,-793.36 470.56,-802.9 475.5,-797.94"/>
<text xml:space="preserve" text-anchor="middle" x="567.84" y="-856.7" font-family="Arial" font-size="10.00" fill="#1a4f8a">BER/BLER,</text>
<text xml:space="preserve" text-anchor="middle" x="567.84" y="-844.7" font-family="Arial" font-size="10.00" fill="#1a4f8a">throughput,</text>
<text xml:space="preserve" text-anchor="middle" x="567.84" y="-832.7" font-family="Arial" font-size="10.00" fill="#1a4f8a">runtime</text>
</g>
<!-- eval -->
<g id="node9" class="node">
<title>eval</title>
<path fill="#fff3c4" stroke="#888888" stroke-dasharray="5,2" d="M674.43,-104.54C674.43,-104.54 356.5,-104.54 356.5,-104.54 350.5,-104.54 344.5,-98.54 344.5,-92.54 344.5,-92.54 344.5,-12 344.5,-12 344.5,-6 350.5,0 356.5,0 356.5,0 674.43,0 674.43,0 680.43,0 686.43,-6 686.43,-12 686.43,-12 686.43,-92.54 686.43,-92.54 686.43,-98.54 680.43,-104.54 674.43,-104.54"/>
<text xml:space="preserve" text-anchor="start" x="455.09" y="-79.57" font-family="Arial" font-weight="bold" font-size="11.00">ĐÁNH GIÁ &amp; SO SÁNH</text>
<text xml:space="preserve" text-anchor="start" x="364.34" y="-57.77" font-family="Arial" font-size="10.00">Fixed&#45;robust (BPSK 1/2) · Fixed&#45;high&#45;TP (16QAM 3/4) · AI&#45;adaptive π</text>
<text xml:space="preserve" text-anchor="start" x="364.34" y="-37.77" font-family="Arial" font-size="10.00">Sản phẩm: BER vs SNR · Throughput vs SNR ·</text>
<text xml:space="preserve" text-anchor="start" x="364.34" y="-17.77" font-family="Arial" font-size="10.00">Runtime/complexity table · Policy map (SNR → mode)</text>
</g>
<!-- phy&#45;&gt;eval -->
<g id="edge10" class="edge">
<title>phy&#45;&gt;eval</title>
<path fill="none" stroke="#333333" d="M636.93,-893.82C631.49,-848.58 625.47,-785.97 625.47,-730.68 625.47,-730.68 625.47,-730.68 625.47,-225.81 625.47,-183.92 602.13,-144.02 576.95,-113.15"/>
<polygon fill="#333333" stroke="#333333" points="579.92,-111.24 570.8,-105.85 574.57,-115.75 579.92,-111.24"/>
<text xml:space="preserve" text-anchor="middle" x="660.34" y="-494.37" font-family="Arial" font-size="10.00" fill="#1a4f8a">đo 3 chính sách</text>
</g>
<!-- data -->
<g id="node6" class="node">
<title>data</title>
<path fill="#e7e0ff" stroke="#888888" stroke-dasharray="5,2" d="M486.56,-597.41C486.56,-597.41 322.38,-597.41 322.38,-597.41 316.38,-597.41 310.38,-591.41 310.38,-585.41 310.38,-585.41 310.38,-544.87 310.38,-544.87 310.38,-538.87 316.38,-532.87 322.38,-532.87 322.38,-532.87 486.56,-532.87 486.56,-532.87 492.56,-532.87 498.56,-538.87 498.56,-544.87 498.56,-544.87 498.56,-585.41 498.56,-585.41 498.56,-591.41 492.56,-597.41 486.56,-597.41"/>
<text xml:space="preserve" text-anchor="start" x="356.09" y="-572.44" font-family="Arial" font-weight="bold" font-size="11.00">DATASET &#160;{(s, a*)}</text>
<text xml:space="preserve" text-anchor="start" x="330.22" y="-550.64" font-family="Arial" font-size="10.00">cặp trạng thái → hành động tối ưu</text>
</g>
<!-- oracle&#45;&gt;data -->
<g id="edge5" class="edge">
<title>oracle&#45;&gt;data</title>
<path fill="none" stroke="#333333" d="M404.47,-667.23C404.47,-647.85 404.47,-626.88 404.47,-609.08"/>
<polygon fill="#333333" stroke="#333333" points="407.97,-609.13 404.47,-599.13 400.97,-609.13 407.97,-609.13"/>
</g>
<!-- mltrain -->
<g id="node7" class="node">
<title>mltrain</title>
<path fill="#e7e0ff" stroke="#888888" stroke-dasharray="5,2" d="M499.31,-462.87C499.31,-462.87 309.62,-462.87 309.62,-462.87 303.62,-462.87 297.62,-456.87 297.62,-450.87 297.62,-450.87 297.62,-370.33 297.62,-370.33 297.62,-364.33 303.62,-358.33 309.62,-358.33 309.62,-358.33 499.31,-358.33 499.31,-358.33 505.31,-358.33 511.31,-364.33 511.31,-370.33 511.31,-370.33 511.31,-450.87 511.31,-450.87 511.31,-456.87 505.31,-462.87 499.31,-462.87"/>
<text xml:space="preserve" text-anchor="start" x="360.59" y="-437.9" font-family="Arial" font-weight="bold" font-size="11.00">ML POLICY &#160;π(s)</text>
<text xml:space="preserve" text-anchor="start" x="317.47" y="-416.1" font-family="Arial" font-size="10.00">học ánh xạ s → a*</text>
<text xml:space="preserve" text-anchor="start" x="317.47" y="-396.1" font-family="Arial" font-size="10.00">= bản NÉN &amp; GENERALIZE của oracle</text>
<text xml:space="preserve" text-anchor="start" x="317.47" y="-376.1" font-family="Arial" font-size="10.00">(nhẹ, giải thích được)</text>
</g>
<!-- data&#45;&gt;mltrain -->
<g id="edge6" class="edge">
<title>data&#45;&gt;mltrain</title>
<path fill="none" stroke="#333333" d="M404.47,-532.53C404.47,-515.75 404.47,-494.51 404.47,-474.53"/>
<polygon fill="#333333" stroke="#333333" points="407.97,-474.79 404.47,-464.79 400.97,-474.79 407.97,-474.79"/>
</g>
<!-- mltrain&#45;&gt;ctrl -->
<g id="edge7" class="edge">
<title>mltrain&#45;&gt;ctrl</title>
<path fill="none" stroke="#333333" d="M404.47,-357.99C404.47,-337.08 404.47,-312.72 404.47,-290.77"/>
<polygon fill="#333333" stroke="#333333" points="407.97,-291.06 404.47,-281.06 400.97,-291.06 407.97,-291.06"/>
<text xml:space="preserve" text-anchor="middle" x="413.47" y="-319.83" font-family="Arial" font-size="10.00" fill="#1a4f8a">π(s)</text>
</g>
<!-- ctrl&#45;&gt;eval -->
<g id="edge9" class="edge">
<title>ctrl&#45;&gt;eval</title>
<path fill="none" stroke="#d08a2c" d="M437.77,-174.04C449.79,-155.36 463.47,-134.09 475.97,-114.67"/>
<polygon fill="#d08a2c" stroke="#d08a2c" points="478.9,-116.58 481.37,-106.27 473.01,-112.79 478.9,-116.58"/>
<text xml:space="preserve" text-anchor="middle" x="494.04" y="-136.04" font-family="Arial" font-size="10.00" fill="#1a4f8a">AI&#45;adaptive a*</text>
</g>
</g>
</svg>
