<?xml version="1.0" encoding="UTF-8" standalone="no"?>
<!DOCTYPE svg PUBLIC "-//W3C//DTD SVG 1.1//EN"
 "http://www.w3.org/Graphics/SVG/1.1/DTD/svg11.dtd">
<!-- Generated by graphviz version 15.0.0 (20260523.1842)
 -->
<!-- Title: channel_and_snr_detail Pages: 1 -->
<svg width="1707pt" height="2384pt"
 viewBox="0.00 0.00 1707.00 2384.00" xmlns="http://www.w3.org/2000/svg" xmlns:xlink="http://www.w3.org/1999/xlink">
<g id="graph0" class="graph" transform="scale(4.16667 4.16667) rotate(0) translate(4 568.25)">
<title>channel_and_snr_detail</title>
<polygon fill="white" stroke="none" points="-4,4 -4,-568.25 405.72,-568.25 405.72,4 -4,4"/>
<text xml:space="preserve" text-anchor="start" x="57.23" y="-547" font-family="Arial" font-weight="bold" font-size="15.00">Chi tiết khối kênh &amp; quy đổi Eb/N0 → no</text>
<text xml:space="preserve" text-anchor="start" x="198.61" y="-532" font-family="Arial" font-size="15.00"> </text>
<!-- awgn -->
<g id="node1" class="node">
<title>awgn</title>
<path fill="#ffd6d6" stroke="black" d="M146.84,-526.25C146.84,-526.25 22.41,-526.25 22.41,-526.25 16.41,-526.25 10.41,-520.25 10.41,-514.25 10.41,-514.25 10.41,-433.71 10.41,-433.71 10.41,-427.71 16.41,-421.71 22.41,-421.71 22.41,-421.71 146.84,-421.71 146.84,-421.71 152.84,-421.71 158.84,-427.71 158.84,-433.71 158.84,-433.71 158.84,-514.25 158.84,-514.25 158.84,-520.25 152.84,-526.25 146.84,-526.25"/>
<text xml:space="preserve" text-anchor="start" x="47.12" y="-501.28" font-family="Arial" font-weight="bold" font-size="11.00">Chế độ AWGN</text>
<text xml:space="preserve" text-anchor="start" x="30.25" y="-479.48" font-family="Arial" font-size="10.00">y = x + n, &#160;n ~ CN(0, no)</text>
<text xml:space="preserve" text-anchor="start" x="30.25" y="-459.48" font-family="Arial" font-size="10.00">Không méo biên độ/pha</text>
<text xml:space="preserve" text-anchor="start" x="30.25" y="-439.48" font-family="Arial" font-size="10.00">Equalizer: bỏ qua (h = 1)</text>
</g>
<!-- snr -->
<g id="node3" class="node">
<title>snr</title>
<path fill="#eef5ff" stroke="#1a4f8a" d="M373.25,-371.71C373.25,-371.71 12,-371.71 12,-371.71 6,-371.71 0,-365.71 0,-359.71 0,-359.71 0,-146.54 0,-146.54 0,-140.54 6,-134.54 12,-134.54 12,-134.54 373.25,-134.54 373.25,-134.54 379.25,-134.54 385.25,-140.54 385.25,-146.54 385.25,-146.54 385.25,-359.71 385.25,-359.71 385.25,-365.71 379.25,-371.71 373.25,-371.71"/>
<text xml:space="preserve" text-anchor="start" x="135.25" y="-344.35" font-family="Arial" font-weight="bold" font-size="12.00">Quy đổi Eb/N0 → no</text>
<text xml:space="preserve" text-anchor="start" x="190.75" y="-319.75" font-family="Arial" font-size="14.00"> </text>
<text xml:space="preserve" text-anchor="start" x="79.12" y="-299" font-family="Arial" font-size="10.00">Es/N0 (lin)</text>
<text xml:space="preserve" text-anchor="start" x="133.62" y="-299" font-family="Arial" font-size="10.00"> &#160;= (Eb/N0 lin) × num_bits_per_symbol</text>
<text xml:space="preserve" text-anchor="start" x="115.12" y="-279" font-family="Arial" font-size="10.00">no</text>
<text xml:space="preserve" text-anchor="start" x="133.62" y="-279" font-family="Arial" font-size="10.00"> &#160;= 1 / (Es/N0 lin) &#160;&#160;&#160;(Sionna đặt Es = 1)</text>
<text xml:space="preserve" text-anchor="start" x="190.75" y="-256" font-family="Arial" font-size="14.00"> </text>
<text xml:space="preserve" text-anchor="start" x="98.62" y="-235.25" font-family="Arial" font-size="10.00">BPSK</text>
<text xml:space="preserve" text-anchor="start" x="133.62" y="-235.25" font-family="Arial" font-size="10.00"> &#160;Es/N0 = Eb/N0 × 1</text>
<text xml:space="preserve" text-anchor="start" x="97.88" y="-215.25" font-family="Arial" font-size="10.00">QPSK</text>
<text xml:space="preserve" text-anchor="start" x="133.62" y="-215.25" font-family="Arial" font-size="10.00"> &#160;Es/N0 = Eb/N0 × 2</text>
<text xml:space="preserve" text-anchor="start" x="92.62" y="-195.25" font-family="Arial" font-size="10.00">16QAM</text>
<text xml:space="preserve" text-anchor="start" x="133.62" y="-195.25" font-family="Arial" font-size="10.00"> &#160;Es/N0 = Eb/N0 × 4</text>
<text xml:space="preserve" text-anchor="start" x="190.75" y="-172.25" font-family="Arial" font-size="14.00"> </text>
<text xml:space="preserve" text-anchor="start" x="22" y="-154.5" font-family="Consolas" font-size="9.00" fill="#1a4f8a">no = sn.utils.ebnodb2no(ebno_db, num_bits_per_symbol, coderate=1)</text>
</g>
<!-- awgn&#45;&gt;snr -->
<!-- rayl -->
<g id="node2" class="node">
<title>rayl</title>
<path fill="#ffd6d6" stroke="black" d="M389.72,-526.25C389.72,-526.25 213.53,-526.25 213.53,-526.25 207.53,-526.25 201.53,-520.25 201.53,-514.25 201.53,-514.25 201.53,-433.71 201.53,-433.71 201.53,-427.71 207.53,-421.71 213.53,-421.71 213.53,-421.71 389.72,-421.71 389.72,-421.71 395.72,-421.71 401.72,-427.71 401.72,-433.71 401.72,-433.71 401.72,-514.25 401.72,-514.25 401.72,-520.25 395.72,-526.25 389.72,-526.25"/>
<text xml:space="preserve" text-anchor="start" x="221.38" y="-501.28" font-family="Arial" font-weight="bold" font-size="11.00">Chế độ Rayleigh (flat) + AWGN</text>
<text xml:space="preserve" text-anchor="start" x="221.38" y="-479.48" font-family="Arial" font-size="10.00">y = h·x + n, &#160;h ~ CN(0,1), E[|h|²]=1</text>
<text xml:space="preserve" text-anchor="start" x="221.38" y="-459.48" font-family="Arial" font-size="10.00">Mỗi symbol một h mới (fast fading)</text>
<text xml:space="preserve" text-anchor="start" x="221.38" y="-439.48" font-family="Arial" font-size="10.00">Equalizer ZF: x_hat = y / h</text>
</g>
<!-- rayl&#45;&gt;snr -->
<g id="edge2" class="edge">
<title>rayl&#45;&gt;snr</title>
<path fill="none" stroke="#333333" d="M275.93,-421.39C269.9,-409.29 263.22,-395.86 256.33,-382.03"/>
<polygon fill="#333333" stroke="#333333" points="259.55,-380.65 251.96,-373.26 253.28,-383.77 259.55,-380.65"/>
</g>
<!-- trap -->
<g id="node4" class="node">
<title>trap</title>
<polygon fill="#fff0f0" stroke="#b03030" points="356.09,-84.54 23.16,-84.54 23.16,0 362.09,0 362.09,-78.54 356.09,-84.54"/>
<polyline fill="none" stroke="#b03030" points="356.09,-84.54 356.09,-78.54"/>
<polyline fill="none" stroke="#b03030" points="362.09,-78.54 356.09,-78.54"/>
<text xml:space="preserve" text-anchor="start" x="106.75" y="-59.57" font-family="Arial" font-weight="bold" font-size="11.00" fill="#b03030">CẠM BẪY — noise enhancement</text>
<text xml:space="preserve" text-anchor="start" x="43" y="-37.77" font-family="Arial" font-size="10.00" fill="#b03030">Ở SNR cao, |h| có thể rất nhỏ → x_hat = y/h khuếch đại nhiễu.</text>
<text xml:space="preserve" text-anchor="start" x="43" y="-17.77" font-family="Arial" font-size="10.00" fill="#b03030">Đây là lý do BER trên Rayleigh tệ hơn AWGN nhiều dù cùng Eb/N0.</text>
</g>
<!-- snr&#45;&gt;trap -->
<g id="edge3" class="edge">
<title>snr&#45;&gt;trap</title>
<path fill="none" stroke="#333333" d="M192.62,-134.27C192.62,-120.95 192.62,-107.92 192.62,-96.07"/>
<polygon fill="#333333" stroke="#333333" points="196.13,-96.17 192.63,-86.17 189.13,-96.17 196.13,-96.17"/>
</g>
</g>
</svg>
