<?xml version="1.0" encoding="UTF-8" standalone="no"?>
<!DOCTYPE svg PUBLIC "-//W3C//DTD SVG 1.1//EN"
 "http://www.w3.org/Graphics/SVG/1.1/DTD/svg11.dtd">
<!-- Generated by graphviz version 15.0.0 (20260523.1842)
 -->
<!-- Title: phy_link_flow Pages: 1 -->
<svg width="3570pt" height="3526pt"
 viewBox="0.00 0.00 3570.00 3526.00" xmlns="http://www.w3.org/2000/svg" xmlns:xlink="http://www.w3.org/1999/xlink">
<g id="graph0" class="graph" transform="scale(4.16667 4.16667) rotate(0) translate(4 842.24)">
<title>phy_link_flow</title>
<polygon fill="white" stroke="none" points="-4,4 -4,-842.24 852.81,-842.24 852.81,4 -4,4"/>
<text xml:space="preserve" text-anchor="start" x="213.65" y="-820.04" font-family="Arial" font-weight="bold" font-size="16.00">Baseline PHY Link (single&#45;carrier) &#160;— &#160;luồng phát → thu</text>
<text xml:space="preserve" text-anchor="start" x="152.15" y="-808.79" font-family="Arial" font-size="11.00" fill="#666666">Cấu hình CỐ ĐỊNH: chưa channel coding · chưa OFDM/MIMO · perfect CSI · chưa ML &#160;(nền cho giai đoạn AMC)</text>
<text xml:space="preserve" text-anchor="start" x="422.15" y="-793.04" font-family="Arial" font-size="16.00"> </text>
<!-- src -->
<g id="node1" class="node">
<title>src</title>
<path fill="#cfe8ff" stroke="black" d="M157.06,-787.24C157.06,-787.24 31.88,-787.24 31.88,-787.24 25.88,-787.24 19.88,-781.24 19.88,-775.24 19.88,-775.24 19.88,-714.7 19.88,-714.7 19.88,-708.7 25.88,-702.7 31.88,-702.7 31.88,-702.7 157.06,-702.7 157.06,-702.7 163.06,-702.7 169.06,-708.7 169.06,-714.7 169.06,-714.7 169.06,-775.24 169.06,-775.24 169.06,-781.24 163.06,-787.24 157.06,-787.24"/>
<text xml:space="preserve" text-anchor="start" x="62.59" y="-762.27" font-family="Arial" font-weight="bold" font-size="11.00">1. Nguồn bit</text>
<text xml:space="preserve" text-anchor="start" x="39.72" y="-740.47" font-family="Arial" font-size="10.00">Sinh bit ngẫu nhiên</text>
<text xml:space="preserve" text-anchor="start" x="39.72" y="-720.47" font-family="Arial" font-size="10.00">shape [batch, N], b = 0/1</text>
</g>
<!-- map -->
<g id="node2" class="node">
<title>map</title>
<path fill="#cfe8ff" stroke="black" d="M176.93,-654.7C176.93,-654.7 12,-654.7 12,-654.7 6,-654.7 0,-648.7 0,-642.7 0,-642.7 0,-562.16 0,-562.16 0,-556.16 6,-550.16 12,-550.16 12,-550.16 176.93,-550.16 176.93,-550.16 182.93,-550.16 188.93,-556.16 188.93,-562.16 188.93,-562.16 188.93,-642.7 188.93,-642.7 188.93,-648.7 182.93,-654.7 176.93,-654.7"/>
<text xml:space="preserve" text-anchor="start" x="68.97" y="-629.73" font-family="Arial" font-weight="bold" font-size="11.00">2. Mapper</text>
<text xml:space="preserve" text-anchor="start" x="19.84" y="-607.93" font-family="Arial" font-size="10.00">BPSK → pam,1 &#160;&#160;QPSK → qam,2</text>
<text xml:space="preserve" text-anchor="start" x="19.84" y="-587.93" font-family="Arial" font-size="10.00">16QAM → qam,4</text>
<text xml:space="preserve" text-anchor="start" x="19.84" y="-567.93" font-family="Arial" font-size="10.00">Gray code, chuẩn hoá Es=1</text>
</g>
<!-- src&#45;&gt;map -->
<g id="edge1" class="edge">
<title>src&#45;&gt;map</title>
<path fill="none" stroke="#333333" d="M94.47,-702.56C94.47,-691.16 94.47,-678.52 94.47,-666.2"/>
<polygon fill="#333333" stroke="#333333" points="97.97,-666.53 94.47,-656.53 90.97,-666.53 97.97,-666.53"/>
<text xml:space="preserve" text-anchor="middle" x="106.47" y="-675.2" font-family="Arial" font-size="10.00" fill="#1a4f8a">bits b</text>
</g>
<!-- chan -->
<g id="node3" class="node">
<title>chan</title>
<path fill="#ffd6d6" stroke="black" d="M148.43,-502.16C148.43,-502.16 40.5,-502.16 40.5,-502.16 34.5,-502.16 28.5,-496.16 28.5,-490.16 28.5,-490.16 28.5,-409.62 28.5,-409.62 28.5,-403.62 34.5,-397.62 40.5,-397.62 40.5,-397.62 148.43,-397.62 148.43,-397.62 154.43,-397.62 160.43,-403.62 160.43,-409.62 160.43,-409.62 160.43,-490.16 160.43,-490.16 160.43,-496.16 154.43,-502.16 148.43,-502.16"/>
<text xml:space="preserve" text-anchor="start" x="56.22" y="-477.19" font-family="Arial" font-weight="bold" font-size="11.00">3. Kênh truyền</text>
<text xml:space="preserve" text-anchor="start" x="48.34" y="-455.39" font-family="Arial" font-size="10.00">AWGN: &#160;&#160;&#160;&#160;y = x + n</text>
<text xml:space="preserve" text-anchor="start" x="48.34" y="-435.39" font-family="Arial" font-size="10.00">Rayleigh: y = h·x + n</text>
<text xml:space="preserve" text-anchor="start" x="48.34" y="-415.39" font-family="Arial" font-size="10.00">n ~ CN(0, no)</text>
</g>
<!-- map&#45;&gt;chan -->
<g id="edge2" class="edge">
<title>map&#45;&gt;chan</title>
<path fill="none" stroke="#333333" d="M94.47,-550.04C94.47,-538.43 94.47,-525.96 94.47,-513.92"/>
<polygon fill="#333333" stroke="#333333" points="97.97,-514.07 94.47,-504.07 90.97,-514.07 97.97,-514.07"/>
<text xml:space="preserve" text-anchor="middle" x="116.97" y="-522.66" font-family="Arial" font-size="10.00" fill="#1a4f8a">symbols x</text>
</g>
<!-- eq -->
<g id="node4" class="node">
<title>eq</title>
<path fill="#d8f5d0" stroke="black" d="M161.56,-349.62C161.56,-349.62 27.38,-349.62 27.38,-349.62 21.38,-349.62 15.38,-343.62 15.38,-337.62 15.38,-337.62 15.38,-277.08 15.38,-277.08 15.38,-271.08 21.38,-265.08 27.38,-265.08 27.38,-265.08 161.56,-265.08 161.56,-265.08 167.56,-265.08 173.56,-271.08 173.56,-277.08 173.56,-277.08 173.56,-337.62 173.56,-337.62 173.56,-343.62 167.56,-349.62 161.56,-349.62"/>
<text xml:space="preserve" text-anchor="start" x="49.09" y="-324.65" font-family="Arial" font-weight="bold" font-size="11.00">4. Cân bằng kênh</text>
<text xml:space="preserve" text-anchor="start" x="35.22" y="-302.85" font-family="Arial" font-size="10.00">x_hat = y / h</text>
<text xml:space="preserve" text-anchor="start" x="35.22" y="-282.85" font-family="Arial" font-size="10.00">perfect CSI (AWGN: h = 1)</text>
</g>
<!-- chan&#45;&gt;eq -->
<g id="edge3" class="edge">
<title>chan&#45;&gt;eq</title>
<path fill="none" stroke="#333333" d="M94.47,-397.36C94.47,-385.48 94.47,-372.84 94.47,-360.92"/>
<polygon fill="#333333" stroke="#333333" points="97.97,-361.28 94.47,-351.28 90.97,-361.28 97.97,-361.28"/>
<text xml:space="preserve" text-anchor="middle" x="109.09" y="-370.12" font-family="Arial" font-size="10.00" fill="#1a4f8a">y nhận</text>
</g>
<!-- chan&#45;&gt;eq -->
<g id="edge8" class="edge">
<title>chan&#45;&gt;eq</title>
<path fill="none" stroke="#3a7d34" stroke-dasharray="5,2" d="M126.06,-397.55C128.99,-387.77 130.03,-377.5 127.47,-367.62 126.82,-365.12 126.04,-362.61 125.15,-360.12"/>
<polygon fill="#3a7d34" stroke="#3a7d34" points="121.46,-351.11 129.42,-358.66 122.9,-354.61 125.25,-360.37 125.25,-360.37 125.25,-360.37 122.9,-354.61 121.09,-362.07 121.46,-351.11"/>
<text xml:space="preserve" text-anchor="middle" x="144.67" y="-370.12" font-family="Arial" font-size="10.00" fill="#1a4f8a">h (CSI)</text>
</g>
<!-- demap -->
<g id="node5" class="node">
<title>demap</title>
<path fill="#d8f5d0" stroke="black" d="M171.31,-217.08C171.31,-217.08 17.62,-217.08 17.62,-217.08 11.62,-217.08 5.62,-211.08 5.62,-205.08 5.62,-205.08 5.62,-144.54 5.62,-144.54 5.62,-138.54 11.62,-132.54 17.62,-132.54 17.62,-132.54 171.31,-132.54 171.31,-132.54 177.31,-132.54 183.31,-138.54 183.31,-144.54 183.31,-144.54 183.31,-205.08 183.31,-205.08 183.31,-211.08 177.31,-217.08 171.31,-217.08"/>
<text xml:space="preserve" text-anchor="start" x="61.47" y="-192.11" font-family="Arial" font-weight="bold" font-size="11.00">5. Demapper</text>
<text xml:space="preserve" text-anchor="start" x="25.47" y="-170.31" font-family="Arial" font-size="10.00">hard decision, khoảng cách min</text>
<text xml:space="preserve" text-anchor="start" x="25.47" y="-150.31" font-family="Arial" font-size="10.00">(tính LLR rồi threshold)</text>
</g>
<!-- eq&#45;&gt;demap -->
<g id="edge4" class="edge">
<title>eq&#45;&gt;demap</title>
<path fill="none" stroke="#333333" d="M94.47,-264.69C94.47,-253.27 94.47,-240.73 94.47,-228.76"/>
<polygon fill="#333333" stroke="#333333" points="97.97,-229.04 94.47,-219.04 90.97,-229.04 97.97,-229.04"/>
<text xml:space="preserve" text-anchor="middle" x="106.47" y="-237.58" font-family="Arial" font-size="10.00" fill="#1a4f8a">x_hat</text>
</g>
<!-- ber -->
<g id="node6" class="node">
<title>ber</title>
<path fill="#fff3c4" stroke="black" d="M134.56,-84.54C134.56,-84.54 54.38,-84.54 54.38,-84.54 48.38,-84.54 42.38,-78.54 42.38,-72.54 42.38,-72.54 42.38,-12 42.38,-12 42.38,-6 48.38,0 54.38,0 54.38,0 134.56,0 134.56,0 140.56,0 146.56,-6 146.56,-12 146.56,-12 146.56,-72.54 146.56,-72.54 146.56,-78.54 140.56,-84.54 134.56,-84.54"/>
<text xml:space="preserve" text-anchor="start" x="67.47" y="-59.57" font-family="Arial" font-weight="bold" font-size="11.00">6. Đo BER</text>
<text xml:space="preserve" text-anchor="start" x="62.22" y="-37.77" font-family="Arial" font-size="10.00">đếm b ≠ b_hat</text>
<text xml:space="preserve" text-anchor="start" x="62.22" y="-17.77" font-family="Arial" font-size="10.00">BER = #lỗi / N</text>
</g>
<!-- demap&#45;&gt;ber -->
<g id="edge5" class="edge">
<title>demap&#45;&gt;ber</title>
<path fill="none" stroke="#333333" d="M94.47,-132.15C94.47,-120.73 94.47,-108.19 94.47,-96.22"/>
<polygon fill="#333333" stroke="#333333" points="97.97,-96.5 94.47,-86.5 90.97,-96.5 97.97,-96.5"/>
<text xml:space="preserve" text-anchor="middle" x="106.47" y="-105.04" font-family="Arial" font-size="10.00" fill="#1a4f8a">b_hat</text>
</g>
<!-- snrnote -->
<g id="node8" class="node">
<title>snrnote</title>
<path fill="#eef5ff" stroke="#999999" d="M716.18,-785.36C716.18,-785.36 198.75,-785.36 198.75,-785.36 192.75,-785.36 186.75,-779.36 186.75,-773.36 186.75,-773.36 186.75,-716.57 186.75,-716.57 186.75,-710.57 192.75,-704.57 198.75,-704.57 198.75,-704.57 716.18,-704.57 716.18,-704.57 722.18,-704.57 728.18,-710.57 728.18,-716.57 728.18,-716.57 728.18,-773.36 728.18,-773.36 728.18,-779.36 722.18,-785.36 716.18,-785.36"/>
<text xml:space="preserve" text-anchor="start" x="206.59" y="-763.09" font-family="Consolas" font-size="9.00">Eb/N0 (dB) — ebnodb2no(ebno_db, num_bits_per_symbol, coderate=1) → no</text>
<text xml:space="preserve" text-anchor="start" x="206.59" y="-742.34" font-family="Arial" font-size="10.00">Sionna chuẩn hoá Es=1 → no = N0 (tổng phương sai nhiễu PHỨC) = no/2 mỗi chiều thực → trùng N0/2 của sách.</text>
<text xml:space="preserve" text-anchor="start" x="206.59" y="-722.34" font-family="Arial" font-size="10.00">Monte Carlo: dừng khi gặp ≥ 200 lỗi (không cố định số bit), cap ≤ 1e7 bit.</text>
</g>
<!-- ber&#45;&gt;snrnote -->
<!-- no -->
<g id="node7" class="node">
<title>no</title>
<polygon fill="#fff0f0" stroke="#b03030" points="842.81,-777.24 746.12,-777.24 746.12,-712.7 848.81,-712.7 848.81,-771.24 842.81,-777.24"/>
<polyline fill="none" stroke="#b03030" points="842.81,-777.24 842.81,-771.24"/>
<polyline fill="none" stroke="#b03030" points="848.81,-771.24 842.81,-771.24"/>
<text xml:space="preserve" text-anchor="start" x="790.72" y="-752.27" font-family="Arial" font-weight="bold" font-size="11.00" fill="#b03030">no</text>
<text xml:space="preserve" text-anchor="start" x="765.97" y="-730.47" font-family="Arial" font-size="10.00" fill="#b03030">noise variance</text>
</g>
<!-- no&#45;&gt;chan -->
<g id="edge6" class="edge">
<title>no&#45;&gt;chan</title>
<path fill="none" stroke="#b03030" stroke-dasharray="5,2" d="M757.8,-712.23C751.31,-708.39 744.43,-705.01 737.47,-702.7 686.8,-685.91 301.68,-714.59 257.47,-684.7 203.22,-648.04 235.06,-603.76 197.47,-550.16 187.66,-536.18 175.7,-522.56 163.44,-510.1"/>
<polygon fill="#b03030" stroke="#b03030" points="156.65,-503.36 166.92,-507.21 159.34,-506.02 163.75,-510.4 163.75,-510.4 163.75,-510.4 159.34,-506.02 160.58,-513.6 156.65,-503.36"/>
</g>
<!-- no&#45;&gt;demap -->
<g id="edge7" class="edge">
<title>no&#45;&gt;demap</title>
<path fill="none" stroke="#b03030" stroke-dasharray="5,2" d="M758.16,-712.21C641.19,-617.67 294.74,-337.67 154.45,-224.29"/>
<polygon fill="#b03030" stroke="#b03030" points="146.86,-218.16 157.47,-220.94 149.81,-220.54 154.64,-224.44 154.64,-224.44 154.64,-224.44 149.81,-220.54 151.81,-227.94 146.86,-218.16"/>
</g>
</g>
</svg>
